<svg width="100" height="100" viewBox="0 0 100 100" fill="none" xmlns="http://www.w3.org/2000/svg">
<g clip-path="url(#clip0_60921_1666)">
<path d="M23.7883 25.8889L46.5595 48.6601C47.2993 49.3999 47.2993 50.5992 46.5595 51.339L23.7893 74.1092C18.3463 79.5522 9.52423 79.5522 4.08224 74.1092C1.36075 71.3897 0 67.8234 0 64.2562C0 60.6899 1.35976 57.1236 4.08125 54.4021L8.48337 50L4.19811 45.7147C-1.26171 40.2549 -1.3449 31.2378 4.15354 25.8175C6.86513 23.1446 10.3997 21.8076 13.9343 21.8086C17.5005 21.8086 21.0668 23.1684 23.7873 25.8898L23.7883 25.8889Z" fill="#118C4F"/>
<path d="M74.1102 76.2118L51.339 53.4406C50.5992 52.7008 49.3999 52.7008 48.6601 53.4406L25.8899 76.2108C20.4469 81.6538 20.4469 90.4759 25.8899 95.9179C28.6104 98.6384 32.1776 100 35.7439 100C39.3101 100 42.8764 98.6404 45.5979 95.9189L50 91.5167L54.2853 95.802C59.7451 101.262 68.7623 101.345 74.1825 95.8466C76.8554 93.135 78.1924 89.6004 78.1914 86.0658C78.1914 82.4996 76.8317 78.9333 74.1102 76.2128V76.2118Z" fill="#118C4F"/>
<path d="M25.8889 23.7883L48.6601 46.5595C49.3999 47.2993 50.5992 47.2993 51.339 46.5595L74.1092 23.7893C79.5522 18.3463 79.5522 9.52423 74.1092 4.08224C71.3897 1.36075 67.8234 0 64.2562 0C60.6899 0 57.1236 1.35976 54.4021 4.08125L50 8.48337L45.7147 4.19811C40.2549 -1.26171 31.2378 -1.3449 25.8175 4.15354C23.1446 6.86513 21.8076 10.3997 21.8086 13.9343C21.8086 17.5005 23.1684 21.0668 25.8898 23.7873L25.8889 23.7883Z" fill="#118C4F"/>
<path d="M76.2117 74.1102L53.4405 51.339C52.7007 50.5992 52.7007 49.3999 53.4405 48.6601L76.2107 25.8899C81.6537 20.4469 90.4757 20.4469 95.9177 25.8899C98.6382 28.6104 100 32.1776 100 35.7439C100 39.3101 98.6402 42.8764 95.9187 45.5979L91.5166 50L95.8019 54.2853C101.262 59.7451 101.345 68.7623 95.8464 74.1825C93.1348 76.8554 89.6003 78.1924 86.0657 78.1914C82.4994 78.1914 78.9332 76.8317 76.2127 74.1102H76.2117Z" fill="#118C4F"/>
<path d="M50 64.8554C58.2043 64.8554 64.8553 58.2044 64.8553 50.0001C64.8553 41.7957 58.2043 35.1448 50 35.1448C41.7956 35.1448 35.1447 41.7957 35.1447 50.0001C35.1447 58.2044 41.7956 64.8554 50 64.8554Z" fill="#F5DB54"/>
</g>
<defs>
<clipPath id="clip0_60921_1666">
<rect width="100" height="100" fill="white"/>
</clipPath>
</defs>
</svg>
